<svg xmlns="http://www.w3.org/2000/svg" viewBox="0 0 400 400" role="img" aria-label="Supernova scrapbook badge">
  <defs>
    <linearGradient id="sky" x1="0" y1="0" x2="1" y2="1">
      <stop offset="0" stop-color="#28c2d1"/>
      <stop offset="0.52" stop-color="#fbfaf6"/>
      <stop offset="1" stop-color="#ff6b59"/>
    </linearGradient>
    <filter id="lift" x="-20%" y="-20%" width="140%" height="140%">
      <feDropShadow dx="0" dy="10" stdDeviation="9" flood-color="#161817" flood-opacity=".22"/>
    </filter>
  </defs>
  <rect width="400" height="400" fill="#161817"/>
  <path d="M40 50h320v300H40z" fill="url(#sky)"/>
  <path d="M72 82h256v236H72z" fill="#fffefa" opacity=".78"/>
  <path d="M68 86h264M68 132h264M68 178h264M68 224h264M68 270h264M116 76v252M208 76v252M300 76v252" stroke="#161817" stroke-opacity=".1" stroke-width="3"/>
  <g filter="url(#lift)">
    <path d="M102 150l44-28 54 13 27 47-16 54-48 27-56-16-27-46z" fill="#b9e83d" stroke="#161817" stroke-width="8"/>
    <path d="M220 112l78 34-6 104-84 52-75-45 6-96z" fill="#28c2d1" stroke="#161817" stroke-width="8"/>
    <path d="M123 270l55-102 62 105z" fill="#ff6b59" stroke="#161817" stroke-width="8"/>
  </g>
  <path d="M125 190h150" stroke="#161817" stroke-width="12" stroke-linecap="round"/>
  <path d="M145 222h110" stroke="#161817" stroke-width="8" stroke-linecap="round"/>
  <path d="M136 102l10 24 25 7-25 7-10 24-11-24-24-7 24-7z" fill="#fffefa" stroke="#161817" stroke-width="5"/>
  <path d="M285 246l7 17 18 5-18 5-7 17-8-17-17-5 17-5z" fill="#fffefa" stroke="#161817" stroke-width="5"/>
  <path d="M74 338h252" stroke="#fffefa" stroke-width="10" stroke-linecap="round"/>
  <path d="M128 342h144" stroke="#b9e83d" stroke-width="5" stroke-linecap="round"/>
</svg>
